<svg width="59" height="31" viewBox="0 0 59 31" fill="none" xmlns="http://www.w3.org/2000/svg">
<path fill-rule="evenodd" clip-rule="evenodd" d="M14.673 0C14.8941 0 15.1138 0.00543046 15.3324 0.0155632C15.8011 0.0374182 16.2641 0.0826514 16.7202 0.149739C18.2959 0.381998 19.787 1.03612 21.1399 1.94264L22.2173 0.0160931L24.9353 5.10638L27.6528 10.1959L22.1216 10.1371L16.5895 10.0791L17.6259 8.22607C16.9602 7.92421 16.263 7.73023 15.5577 7.64228C15.3963 7.62215 15.2346 7.60738 15.0724 7.59851C12.8767 7.47638 10.6499 8.37184 9.07533 10.2426C6.32677 13.5081 6.60437 18.5096 9.69613 21.4133C12.7802 24.3101 17.499 24.0247 20.2508 20.7806C24.6732 15.527 29.0957 10.2712 33.5189 5.01717L33.5798 4.94737C36.2586 1.9041 40.0823 6.60897e-05 44.327 6.60897e-05C52.4307 6.60897e-05 59 6.93955 59 15.5C59 24.0606 52.4307 30.9999 44.327 30.9999C41.8075 30.9999 39.4367 30.3287 37.365 29.1469L36.4905 30.8174L33.6366 25.8112L30.7826 20.8049L36.3134 20.6973L41.845 20.5894L40.8417 22.5056C41.8828 23.0848 43.0688 23.4126 44.3269 23.4126C48.4638 23.4126 51.8173 19.8702 51.8173 15.5001C51.8173 11.13 48.4638 7.58751 44.3269 7.58751C42.216 7.58751 40.3094 8.51025 38.9479 9.99447L25.8395 25.5549C23.1481 28.8869 19.1446 31 14.673 31C6.56927 31 0 24.0607 0 15.5001C0 6.93961 6.56927 0 14.673 0Z" fill="white"/>
</svg>
