<?xml version="1.0" encoding="UTF-8"?>
<!DOCTYPE svg PUBLIC "-//W3C//DTD SVG 1.1//EN" "http://www.w3.org/Graphics/SVG/1.1/DTD/svg11.dtd">
<!-- Creator: CorelDRAW 2019 (64-Bit) -->
<svg xmlns="http://www.w3.org/2000/svg" xml:space="preserve" width="12.9646mm" height="12.9646mm" version="1.1" style="shape-rendering:geometricPrecision; text-rendering:geometricPrecision; image-rendering:optimizeQuality; fill-rule:evenodd; clip-rule:evenodd"
viewBox="0 0 104.27 104.27"
 xmlns:xlink="http://www.w3.org/1999/xlink"
 xmlns:xodm="http://www.corel.com/coreldraw/odm/2003">
 <defs>
  <style type="text/css">
   <![CDATA[
    .fil0 {fill:black}
   ]]>
  </style>
 </defs>
 <g id="Layer_x0020_1">
  <metadata id="CorelCorpID_0Corel-Layer"/>
  <path class="fil0" d="M52.13 0c-28.79,0 -52.13,23.34 -52.13,52.13 0,28.79 23.34,52.13 52.13,52.13 28.79,0 52.13,-23.34 52.13,-52.13 0,-28.79 -23.34,-52.13 -52.13,-52.13zm19.38 47.09c-3.4,0 -6.2,-2.54 -6.62,-5.82l7.46 -7.46c3.28,0.42 5.82,3.22 5.82,6.62 0,3.68 -2.99,6.67 -6.67,6.67zm-38.75 0c-3.68,0 -6.67,-2.99 -6.67,-6.67 0,-3.48 2.66,-6.33 6.06,-6.64l7.25 7.25c-0.31,3.4 -3.16,6.06 -6.64,6.06zm-0.91 24.83c11.83,-10.62 29.81,-10.62 41.64,0 0.34,0.31 0.52,0.7 0.53,1.15 0.01,0.46 -0.15,0.86 -0.47,1.18l-0.9 0.9c-0.6,0.6 -1.57,0.63 -2.21,0.06 -10.11,-9.03 -25.44,-9.03 -35.54,0 -0.64,0.57 -1.61,0.54 -2.21,-0.06l-0.9 -0.9c-0.32,-0.32 -0.48,-0.72 -0.47,-1.18 0.01,-0.46 0.19,-0.85 0.53,-1.15zm20.29 -67.67c-26.44,0 -47.88,21.44 -47.88,47.88 0,26.44 21.44,47.88 47.88,47.88 26.44,0 47.88,-21.44 47.88,-47.88 0,-26.44 -21.44,-47.88 -47.88,-47.88z"/>
 </g>
</svg>
