<?xml version="1.0" encoding="UTF-8"?>
<!DOCTYPE svg PUBLIC "-//W3C//DTD SVG 1.1//EN" "http://www.w3.org/Graphics/SVG/1.1/DTD/svg11.dtd">
<!-- Creator: CorelDRAW 2019 (64-Bit) -->
<svg xmlns="http://www.w3.org/2000/svg" xml:space="preserve" width="12.9646mm" height="12.9646mm" version="1.1" style="shape-rendering:geometricPrecision; text-rendering:geometricPrecision; image-rendering:optimizeQuality; fill-rule:evenodd; clip-rule:evenodd"
viewBox="0 0 172.29 172.29"
 xmlns:xlink="http://www.w3.org/1999/xlink"
 xmlns:xodm="http://www.corel.com/coreldraw/odm/2003">
 <defs>
  <style type="text/css">
   <![CDATA[
    .fil0 {fill:black}
   ]]>
  </style>
 </defs>
 <g id="Layer_x0020_1">
  <metadata id="CorelCorpID_0Corel-Layer"/>
  <path class="fil0" d="M118.38 74.9c6.09,0 11.02,-4.93 11.02,-11.02 0,-6.09 -4.93,-11.02 -11.02,-11.02 -6.09,0 -11.02,4.93 -11.02,11.02 0,6.09 4.93,11.02 11.02,11.02zm-31.36 61.37c10.77,0 19.49,-8.73 19.49,-19.49 0,-10.77 -8.73,-19.49 -19.49,-19.49 -10.77,0 -19.49,8.73 -19.49,19.49 0,10.77 8.73,19.49 19.49,19.49zm-0.88 -136.27c-47.58,0 -86.15,38.57 -86.15,86.15 0,47.58 38.57,86.15 86.15,86.15 47.58,0 86.15,-38.57 86.15,-86.15 0,-47.58 -38.57,-86.15 -86.15,-86.15zm0 7.03c-43.69,0 -79.11,35.42 -79.11,79.11 0,43.69 35.42,79.11 79.11,79.11 43.69,0 79.11,-35.42 79.11,-79.11 0,-43.69 -35.42,-79.11 -79.11,-79.11zm-30.47 67.86c6.09,0 11.02,-4.93 11.02,-11.02 0,-6.09 -4.93,-11.02 -11.02,-11.02 -6.09,0 -11.02,4.93 -11.02,11.02 0,6.09 4.93,11.02 11.02,11.02z"/>
 </g>
</svg>
