<?xml version="1.0" encoding="UTF-8"?>
<!DOCTYPE svg PUBLIC "-//W3C//DTD SVG 1.1//EN" "http://www.w3.org/Graphics/SVG/1.1/DTD/svg11.dtd">
<!-- Creator: CorelDRAW 2019 (64-Bit) -->
<svg xmlns="http://www.w3.org/2000/svg" xml:space="preserve" width="12.9646mm" height="12.9646mm" version="1.1" style="shape-rendering:geometricPrecision; text-rendering:geometricPrecision; image-rendering:optimizeQuality; fill-rule:evenodd; clip-rule:evenodd"
viewBox="0 0 129.71 129.71"
 xmlns:xlink="http://www.w3.org/1999/xlink"
 xmlns:xodm="http://www.corel.com/coreldraw/odm/2003">
 <defs>
  <style type="text/css">
   <![CDATA[
    .fil0 {fill:black}
   ]]>
  </style>
 </defs>
 <g id="Layer_x0020_1">
  <metadata id="CorelCorpID_0Corel-Layer"/>
  <path class="fil0" d="M89.12 56.39c4.58,0 8.3,-3.71 8.3,-8.3 0,-4.58 -3.71,-8.3 -8.3,-8.3 -4.58,0 -8.3,3.71 -8.3,8.3 0,4.58 3.71,8.3 8.3,8.3zm-49.51 28.88c14.71,13.21 37.09,13.21 51.8,0 0.42,-0.38 0.65,-0.87 0.66,-1.43 0.02,-0.57 -0.18,-1.07 -0.59,-1.47l-1.12 -1.12c-0.75,-0.75 -1.96,-0.78 -2.75,-0.08 -12.57,11.24 -31.64,11.24 -44.22,0 -0.79,-0.71 -2,-0.67 -2.75,0.08l-1.12 1.12c-0.4,0.4 -0.6,0.9 -0.59,1.47 0.02,0.57 0.24,1.05 0.66,1.43zm25.24 -85.26c-35.82,0 -64.86,29.04 -64.86,64.86 0,35.82 29.04,64.86 64.86,64.86 35.82,0 64.86,-29.04 64.86,-64.86 0,-35.82 -29.04,-64.86 -64.86,-64.86zm0 5.29c-32.89,0 -59.56,26.67 -59.56,59.56 0,32.89 26.67,59.56 59.56,59.56 32.89,0 59.56,-26.67 59.56,-59.56 0,-32.89 -26.67,-59.56 -59.56,-59.56zm-22.94 51.09c4.58,0 8.3,-3.71 8.3,-8.3 0,-4.58 -3.71,-8.3 -8.3,-8.3 -4.58,0 -8.3,3.71 -8.3,8.3 0,4.58 3.71,8.3 8.3,8.3z"/>
 </g>
</svg>
