<?xml version="1.0" encoding="UTF-8"?>
<!DOCTYPE svg PUBLIC "-//W3C//DTD SVG 1.1//EN" "http://www.w3.org/Graphics/SVG/1.1/DTD/svg11.dtd">
<!-- Creator: CorelDRAW 2019 (64-Bit) -->
<svg xmlns="http://www.w3.org/2000/svg" xml:space="preserve" width="12.9646mm" height="12.9646mm" version="1.1" style="shape-rendering:geometricPrecision; text-rendering:geometricPrecision; image-rendering:optimizeQuality; fill-rule:evenodd; clip-rule:evenodd"
viewBox="0 0 86.73 86.73"
 xmlns:xlink="http://www.w3.org/1999/xlink"
 xmlns:xodm="http://www.corel.com/coreldraw/odm/2003">
 <defs>
  <style type="text/css">
   <![CDATA[
    .fil0 {fill:black}
   ]]>
  </style>
 </defs>
 <g id="Layer_x0020_1">
  <metadata id="CorelCorpID_0Corel-Layer"/>
  <path class="fil0" d="M27.14 37.7c-3.06,0 -5.55,-2.48 -5.55,-5.55 0,-3.06 2.48,-5.55 5.55,-5.55 3.06,0 5.55,2.48 5.55,5.55 0,3.06 -2.48,5.55 -5.55,5.55zm0.3 17.17l31.86 0c1.14,0 2.07,0.93 2.07,2.07l0 0c0,1.14 -0.93,2.07 -2.07,2.07l-31.86 0c-1.14,0 -2.07,-0.93 -2.07,-2.07l0 0c0,-1.14 0.93,-2.07 2.07,-2.07zm15.93 -54.87c23.95,0 43.36,19.41 43.36,43.36 0,23.95 -19.41,43.36 -43.36,43.36 -23.95,0 -43.36,-19.41 -43.36,-43.36 0,-23.95 19.41,-43.36 43.36,-43.36zm0 3.54c21.99,0 39.82,17.83 39.82,39.82 0,21.99 -17.83,39.82 -39.82,39.82 -21.99,0 -39.82,-17.83 -39.82,-39.82 0,-21.99 17.83,-39.82 39.82,-39.82zm15.34 34.16c-3.06,0 -5.55,-2.48 -5.55,-5.55 0,-3.06 2.48,-5.55 5.55,-5.55 3.06,0 5.55,2.48 5.55,5.55 0,3.06 -2.48,5.55 -5.55,5.55z"/>
 </g>
</svg>
